<svg width="23" height="23" viewBox="0 0 23 23" fill="none" xmlns="http://www.w3.org/2000/svg">
<path d="M12.7031 0C13.8745 0.192551 15.0196 0.593808 16.0801 1.20605L17.1592 1.83008C20.2532 3.61641 22.1592 6.91758 22.1592 10.4902V11.7373C22.159 15.3098 20.2531 18.6112 17.1592 20.3975L16.0801 21.0205C12.9861 22.8068 9.17406 22.8068 6.08008 21.0205L5 20.3975C1.90612 18.6112 0.000161393 15.3098 0 11.7373V10.4902C0 6.91767 1.90614 3.61644 5 1.83008L6.08008 1.20605C7.13971 0.59433 8.28374 0.192698 9.4541 0C9.38278 0.0585842 9.31415 0.122003 9.24805 0.189453C7.65714 1.81281 8.80711 4.5498 11.0801 4.5498C13.3529 4.54967 14.5027 1.81279 12.9121 0.189453C12.8455 0.121515 12.775 0.0589433 12.7031 0ZM13.6309 12.2539C12.4503 10.4141 9.76163 10.4142 8.58105 12.2539L8.19629 12.8516C7.56282 13.8388 7.56282 15.1056 8.19629 16.0928L8.58105 16.6904C9.76163 18.5301 12.4503 18.5302 13.6309 16.6904L14.0146 16.0928C14.6481 15.1056 14.6481 13.8388 14.0146 12.8516L13.6309 12.2539Z" fill="#615898"/>
</svg>
